<?xml version="1.0" standalone="no"?>
<!DOCTYPE svg PUBLIC "-//W3C//DTD SVG 20010904//EN"
 "http://www.w3.org/TR/2001/REC-SVG-20010904/DTD/svg10.dtd">
<svg version="1.0" xmlns="http://www.w3.org/2000/svg"
 width="512.000000pt" height="512.000000pt" viewBox="0 0 512.000000 512.000000"
 preserveAspectRatio="xMidYMid meet">
<metadata>
Created by potrace 1.11, written by Peter Selinger 2001-2013
</metadata>
<g transform="translate(0.000000,512.000000) scale(0.100000,-0.100000)"
fill="#000000" stroke="none">
<path d="M2797 4863 c-35 -60 -594 -1006 -1242 -2103 -648 -1097 -1185 -2005
-1193 -2018 l-14 -22 380 0 380 0 968 1637 c532 901 979 1656 992 1678 l25 39
118 -432 118 -432 -731 -1238 c-401 -680 -732 -1240 -735 -1244 -2 -5 166 -8
375 -8 l379 0 473 801 c260 440 476 796 480 792 7 -7 440 -1572 440 -1587 0
-3 153 -6 340 -6 187 0 340 1 340 3 0 1 -148 541 -328 1199 l-328 1197 232
393 231 393 -340 5 -340 5 -145 528 -146 527 -333 0 -332 0 -64 -107z"/>
<path d="M870 621 c-110 -34 -174 -118 -174 -231 0 -147 117 -251 265 -237
123 11 209 99 217 223 7 111 -52 202 -157 239 -46 16 -109 18 -151 6z m149
-127 c94 -79 43 -235 -77 -234 -26 1 -57 6 -70 14 -81 44 -83 180 -3 229 42
26 114 22 150 -9z"/>
<path d="M3900 621 c-108 -33 -173 -119 -173 -231 0 -94 45 -169 128 -213 31
-17 58 -22 116 -22 67 0 81 3 125 30 105 66 144 199 89 310 -14 30 -41 66 -59
80 -62 47 -157 67 -226 46z m149 -127 c93 -78 42 -234 -78 -234 -82 0 -131 48
-131 130 0 83 47 129 132 130 36 0 53 -6 77 -26z"/>
<path d="M330 390 l0 -230 55 0 55 0 0 80 0 79 98 3 97 3 3 48 3 47 -100 0
-101 0 0 50 0 50 115 0 115 0 0 50 0 50 -170 0 -170 0 0 -230z"/>
<path d="M1240 473 c0 -82 5 -165 11 -186 45 -165 314 -185 391 -30 21 43 23
64 26 206 l4 157 -61 0 -61 0 0 -149 c0 -146 -1 -150 -26 -180 -21 -25 -33
-31 -66 -31 -90 0 -108 37 -108 225 l0 135 -55 0 -55 0 0 -147z"/>
<path d="M1730 390 l0 -230 60 0 60 0 0 125 0 126 111 -126 c110 -124 111
-125 155 -125 l44 0 0 230 0 230 -55 0 -55 0 0 -125 c0 -69 -3 -125 -7 -125
-5 0 -55 56 -113 124 l-105 125 -47 0 -48 1 0 -230z"/>
<path d="M2230 390 l0 -232 138 4 c147 4 190 16 238 70 82 90 79 246 -8 324
-54 50 -86 58 -230 62 l-138 4 0 -232z m244 116 c50 -21 76 -60 76 -116 0 -81
-59 -130 -155 -130 l-45 0 0 130 0 130 45 0 c25 0 60 -6 79 -14z"/>
<path d="M2761 404 c-51 -119 -95 -223 -98 -230 -4 -11 8 -14 54 -14 l60 0 16
40 15 40 100 0 99 0 16 -40 15 -40 61 0 60 0 -35 83 c-20 45 -64 148 -97 229
l-62 148 -56 0 -56 0 -92 -216z m173 18 c14 -37 26 -73 26 -80 0 -8 -18 -12
-55 -12 -30 0 -55 3 -55 8 0 9 52 152 55 152 2 0 15 -30 29 -68z"/>
<path d="M3090 570 l0 -50 75 0 75 0 0 -180 0 -180 55 0 55 0 0 180 0 180 75
0 75 0 0 50 0 50 -205 0 -205 0 0 -50z"/>
<path d="M3550 390 l0 -230 55 0 55 0 0 230 0 230 -55 0 -55 0 0 -230z"/>
<path d="M4270 390 l0 -230 60 0 60 0 0 125 0 126 108 -125 c105 -123 108
-125 150 -125 l42 -1 0 230 0 230 -55 0 -54 0 -3 -126 -3 -125 -108 125 -108
126 -44 0 -45 0 0 -230z"/>
</g>
</svg>
